<?xml version="1.0" standalone="no"?>
<!DOCTYPE svg PUBLIC "-//W3C//DTD SVG 20010904//EN"
 "http://www.w3.org/TR/2001/REC-SVG-20010904/DTD/svg10.dtd">
<svg version="1.0" xmlns="http://www.w3.org/2000/svg"
 width="500.000000pt" height="500.000000pt" viewBox="0 0 500.000000 500.000000"
 preserveAspectRatio="xMidYMid meet">

<g transform="translate(0.000000,500.000000) scale(0.100000,-0.100000)"
fill="#000000" stroke="none">
<path d="M1586 4874 c-132 -31 -283 -141 -366 -268 -68 -103 -91 -193 -97
-388 l-6 -166 -97 -4 c-86 -3 -100 -6 -131 -30 -19 -14 -43 -43 -52 -65 -13
-29 -43 -332 -131 -1313 -63 -701 -114 -1275 -113 -1276 1 -2 37 45 81 102
223 299 438 504 731 696 383 252 851 395 1220 373 157 -9 305 -32 399 -62 106
-33 264 -108 350 -167 38 -25 70 -45 72 -44 1 2 -31 374 -72 828 -83 933 -76
893 -164 938 -42 21 -55 22 -287 22 l-243 0 0 158 c0 180 -11 237 -67 352 -73
150 -253 289 -413 319 -83 15 -542 11 -614 -5z m11 -186 c-60 -65 -123 -190
-142 -283 -9 -42 -15 -127 -15 -212 l0 -143 -85 0 -85 0 0 153 c0 111 4 169
16 208 39 135 148 254 280 308 79 32 85 26 31 -31z m686 10 c69 -35 162 -125
199 -194 45 -83 58 -153 58 -311 l0 -143 -84 0 -83 0 -6 168 c-9 238 -42 338
-153 461 l-58 63 35 -7 c18 -4 60 -21 92 -37z m-316 1 c58 -28 143 -107 183
-169 56 -88 70 -152 70 -326 l0 -154 -321 0 -321 0 4 163 c5 177 20 237 79
322 62 90 184 185 238 185 14 0 44 -9 68 -21z m-507 -1143 c29 -28 65 -29 95
-3 26 21 29 31 33 106 5 81 5 81 24 64 32 -28 50 -72 50 -118 0 -136 -151
-211 -259 -129 -42 32 -63 73 -63 124 0 56 21 102 61 133 l34 27 5 -95 c3 -65
10 -99 20 -109z m1279 160 c61 -62 61 -159 0 -222 -60 -62 -149 -69 -217 -17
-69 52 -81 158 -28 228 15 19 31 35 37 35 5 0 9 -36 9 -79 0 -87 14 -115 61
-126 19 -5 34 0 55 18 27 24 29 31 33 111 1 47 6 86 10 86 4 0 22 -15 40 -34z"/>
<path d="M4223 2039 c-43 -21 -51 -42 -12 -32 12 4 25 0 30 -8 5 -8 9 -129 9
-270 0 -299 7 -336 70 -393 47 -42 75 -51 155 -50 71 0 132 28 168 76 93 123
66 357 -47 424 -42 25 -114 23 -159 -4 l-37 -21 0 128 c0 120 -1 129 -23 149
-31 29 -97 29 -154 1z m276 -308 c29 -29 41 -85 41 -197 0 -122 -6 -156 -32
-184 -27 -29 -58 -22 -82 19 -17 29 -21 58 -24 182 l-4 147 25 26 c31 31 50
33 76 7z"/>
<path d="M1554 2016 c-137 -31 -204 -94 -204 -191 0 -69 84 -125 141 -94 48
25 62 67 35 104 -14 19 -15 19 -51 2 -45 -21 -65 -10 -65 35 0 56 109 122 169
103 21 -6 21 -10 21 -296 0 -331 3 -348 67 -376 56 -25 230 -24 302 1 116 40
174 149 141 268 -15 54 -55 95 -109 115 l-48 17 30 20 c54 37 72 71 72 136 0
72 -21 105 -91 140 -45 23 -61 25 -199 27 -98 2 -171 -2 -211 -11z m321 -50
c28 -28 39 -79 32 -143 -6 -55 -32 -93 -75 -107 -43 -15 -44 -28 -2 -39 42
-10 88 -51 106 -94 37 -86 2 -210 -68 -248 -35 -18 -40 -19 -65 -5 l-28 16 -3
308 c-2 219 1 313 9 322 18 22 67 17 94 -10z"/>
<path d="M2761 1913 c-29 -58 -101 -113 -146 -113 -28 0 -13 -35 17 -38 l27
-3 3 -210 3 -211 28 -23 c58 -51 147 -38 200 27 34 42 29 63 -6 30 -29 -27
-53 -28 -67 -3 -6 12 -10 96 -10 205 l0 186 44 0 c60 0 94 14 108 45 22 48
-21 98 -52 60 -10 -13 -10 -19 4 -33 9 -10 16 -22 16 -25 0 -4 -27 -7 -60 -7
l-60 0 0 75 c0 87 -17 100 -49 38z"/>
<path d="M2352 1791 c-71 -25 -121 -67 -154 -131 -24 -44 -28 -64 -28 -129 0
-93 21 -143 80 -193 92 -79 239 -70 324 21 38 40 28 49 -19 16 -21 -14 -51
-25 -67 -25 -74 0 -150 68 -152 137 -1 36 0 37 109 102 81 49 112 73 119 94
31 88 -91 151 -212 108z m92 -95 c13 -48 3 -62 -65 -104 l-54 -32 -3 25 c-6
50 18 134 45 155 23 18 29 19 47 7 12 -8 25 -31 30 -51z"/>
<path d="M3148 1796 c-124 -34 -198 -135 -198 -270 1 -145 92 -240 230 -240
74 0 126 22 174 73 38 40 28 49 -19 16 -21 -14 -51 -25 -67 -25 -69 0 -139 62
-154 137 -6 30 -4 32 92 89 55 32 109 67 122 78 24 21 29 64 12 97 -24 44
-117 66 -192 45z m72 -76 c12 -22 13 -70 2 -86 -4 -6 -33 -26 -66 -44 l-58
-33 7 54 c9 77 23 117 47 133 24 17 51 8 68 -24z"/>
<path d="M3515 1801 c-69 -18 -105 -59 -105 -121 0 -42 21 -79 86 -152 31 -35
64 -78 72 -96 15 -30 15 -34 -5 -60 -27 -36 -81 -41 -129 -11 -49 30 -57 14
-11 -26 119 -103 307 -45 307 95 0 48 -25 87 -111 176 -86 89 -98 120 -57 148
28 20 49 20 74 1 18 -14 18 -16 2 -29 -27 -20 -23 -54 7 -62 27 -7 65 18 65
42 0 27 -25 66 -50 79 -33 17 -107 26 -145 16z"/>
<path d="M3962 1791 c-71 -25 -121 -67 -154 -131 -24 -44 -28 -64 -28 -129 0
-93 21 -143 80 -193 92 -79 239 -70 324 21 38 40 28 49 -19 16 -21 -14 -51
-25 -67 -25 -74 0 -150 68 -152 137 -1 36 0 37 109 102 81 49 112 73 119 94
31 88 -91 151 -212 108z m92 -95 c13 -48 3 -62 -65 -104 l-54 -32 -3 25 c-6
50 18 134 45 155 23 18 29 19 47 7 12 -8 25 -31 30 -51z"/>
</g>
</svg>
