<?xml version="1.0" encoding="UTF-8"?>
<svg version="1.1" xmlns="http://www.w3.org/2000/svg" width="400" height="400">
<path d="M0 0 C132 0 264 0 400 0 C400 132 400 264 400 400 C268 400 136 400 0 400 C0 268 0 136 0 0 Z " fill="#FEFEFE" transform="translate(0,0)"/>
<path d="M0 0 C1.16853516 0.00418945 2.33707031 0.00837891 3.54101562 0.01269531 C16.5607722 0.1805309 29.34632984 1.37011717 41.484375 6.359375 C43.86733873 7.30944551 46.20215189 7.93715435 48.6875 8.5625 C69.44480892 14.63459037 88.89674661 32.08458075 99.625 50.375 C104.44711532 59.6661238 106.875 69.86750757 106.875 80.3125 C36.915 80.3125 -33.045 80.3125 -105.125 80.3125 C-103.16116677 56.7465012 -94.21662808 40.49611727 -76.3671875 25.1171875 C-66.44074973 17.12761563 -55.2409798 11.18539404 -43.125 7.3125 C-42.48755859 7.10737793 -41.85011719 6.90225586 -41.19335938 6.69091797 C-39.04986678 6.00839537 -36.90131136 5.34493883 -34.75 4.6875 C-34.09112793 4.48116943 -33.43225586 4.27483887 -32.75341797 4.06225586 C-22.02147015 0.87834988 -11.15174279 -0.05533556 0 0 Z " fill="#5A5A5A" transform="translate(199.125,215.6875)"/>
<path d="M0 0 C0.75071777 0.00088623 1.50143555 0.00177246 2.27490234 0.00268555 C8.47579052 0.13440594 13.22697674 1.54510808 18.75 4.375 C19.884375 4.74625 21.01875 5.1175 22.1875 5.5 C30.62368889 9.17833828 38.91361357 18.05473576 42.75 26.375 C42.75 27.695 42.75 29.015 42.75 30.375 C43.41 30.375 44.07 30.375 44.75 30.375 C49.48552525 44.75342949 47.40795171 59.02834391 40.75 72.375 C36.08563238 80.86550107 27.19297046 89.03069644 17.82421875 91.82421875 C17.13972656 92.00597656 16.45523438 92.18773437 15.75 92.375 C14.93144531 92.64957031 14.11289063 92.92414063 13.26953125 93.20703125 C0.2311983 97.32737024 -10.45240226 95.68628007 -22.5 89.9375 C-33.21895142 84.35505689 -40.45852334 75.41171405 -45.25 64.375 C-47.08622713 58.40570571 -47.55959832 53.03555742 -47.5 46.8125 C-47.50773438 46.00103516 -47.51546875 45.18957031 -47.5234375 44.35351562 C-47.50717694 39.31680841 -46.86461583 35.14836822 -45.25 30.375 C-44.59 30.375 -43.93 30.375 -43.25 30.375 C-43.15589844 29.48554688 -43.06179687 28.59609375 -42.96484375 27.6796875 C-40.99926199 18.59289969 -31.73053888 11.25656012 -24.25 6.375 C-20.98942008 4.75913739 -17.70655742 3.50116871 -14.25 2.375 C-13.3321875 2.01921875 -12.414375 1.6634375 -11.46875 1.296875 C-7.61612965 0.19345461 -3.97615757 -0.008441 0 0 Z " fill="#5A5A5A" transform="translate(200.25,103.625)"/>
<path d="M0 0 C2.13093906 1.06546953 3.36587557 2.29159719 5 4 C0.84541088 6.23708645 -3.23876933 8 -8 8 C-5.36 5.36 -2.72 2.72 0 0 Z " fill="#6A6A6A" transform="translate(122,241)"/>
<path d="M0 0 C0.33 0.66 0.66 1.32 1 2 C-1.31 4.97 -3.62 7.94 -6 11 C-6.99 10.34 -7.98 9.68 -9 9 C-8.0409375 8.5978125 -8.0409375 8.5978125 -7.0625 8.1875 C-4.66868314 7.11332248 -4.66868314 7.11332248 -4 4 C-2.70644173 2.62804426 -1.37701298 1.28817344 0 0 Z " fill="#DDDDDD" transform="translate(237,180)"/>
<path d="M0 0 C0.33 0.66 0.66 1.32 1 2 C-0.25 5.0625 -0.25 5.0625 -2 8 C-2.99 8.33 -3.98 8.66 -5 9 C-3.7508258 5.54074837 -2.32472205 2.85306797 0 0 Z " fill="#797979" transform="translate(110,253)"/>
<path d="M0 0 C0.66 0.33 1.32 0.66 2 1 C1.34 1.66 0.68 2.32 0 3 C0.33 3.66 0.66 4.32 1 5 C-1.64 5.66 -4.28 6.32 -7 7 C-4.66666667 4.66666667 -2.33333333 2.33333333 0 0 Z " fill="#777777" transform="translate(174,111)"/>
</svg>
