<?xml version="1.0" encoding="UTF-8"?>
<svg version="1.1" xmlns="http://www.w3.org/2000/svg" width="500" height="500">
<path d="M0 0 C165 0 330 0 500 0 C500 165 500 330 500 500 C335 500 170 500 0 500 C0 335 0 170 0 0 Z " fill="#FEFEFE" transform="translate(0,0)"/>
<path d="M0 0 C13.33313401 24.0913588 22.30620265 48.04062195 28 75 C28.16193848 75.75571289 28.32387695 76.51142578 28.49072266 77.29003906 C30.20409788 85.40886085 31.44372614 93.60225318 32.625 101.8125 C32.74834717 102.64096436 32.87169434 103.46942871 32.9987793 104.32299805 C35.21585128 120.48384175 35.21025242 136.9052546 35.1875 153.1875 C35.18559662 154.60338913 35.18559662 154.60338913 35.18365479 156.04788208 C35.02986934 216.26505044 21.09503108 276.67910099 -5 331 C-5.45101074 331.94439941 -5.90202148 332.88879883 -6.36669922 333.86181641 C-15.81220023 353.52368391 -26.68112679 372.01226478 -39 390 C-39.33 389.34 -39.66 388.68 -40 388 C-39.37011719 386.22949219 -39.37011719 386.22949219 -38.296875 384.046875 C-37.89903809 383.21567139 -37.50120117 382.38446777 -37.09130859 381.52807617 C-36.64867676 380.61131104 -36.20604492 379.6945459 -35.75 378.75 C-13.03805121 330.21870593 1.53322191 275.31557427 7 222 C7.10151367 221.030625 7.20302734 220.06125 7.30761719 219.0625 C8.74769629 204.6707946 9.18257166 190.32727698 9.1875 175.875 C9.18849701 175.10848114 9.18949402 174.34196228 9.19052124 173.55221558 C9.18810473 157.18870136 8.33518816 141.11415355 5.8125 124.9375 C5.70329224 124.22866669 5.59408447 123.51983337 5.48156738 122.78952026 C0.31289774 89.55089152 -10.35431005 58.72268956 -26 29 C-26.41632187 28.13049713 -26.83264374 27.26099426 -27.26158142 26.36514282 C-28.77331229 23.79044208 -28.77331229 23.79044208 -31.41081238 23.36076355 C-32.36345474 23.35410172 -33.31609711 23.34743988 -34.29760742 23.34057617 C-35.37850143 23.32093307 -36.45939545 23.30128998 -37.57304382 23.28105164 C-39.32159416 23.28695061 -39.32159416 23.28695061 -41.10546875 23.29296875 C-42.29981033 23.27784744 -43.49415192 23.26272614 -44.72468567 23.24714661 C-48.5458133 23.20409996 -52.36615355 23.19541467 -56.1875 23.1875 C-58.77541181 23.16436909 -61.36330471 23.13900672 -63.95117188 23.11132812 C-70.30085138 23.0483073 -76.65003513 23.01610464 -83 23 C-83 18.05 -83 13.1 -83 8 C-72.81991107 6.58715659 -62.6593182 5.4186843 -52.421875 4.4921875 C-50.99316336 4.36075306 -49.56447318 4.2290852 -48.13580322 4.09719849 C-45.17810712 3.8247931 -42.22023796 3.55438924 -39.26220703 3.28564453 C-35.47253435 2.94128779 -31.68324103 2.59294471 -27.89405441 2.24328423 C-24.96026857 1.97278706 -22.0263507 1.7037465 -19.09238434 1.435215 C-17.6937094 1.30714027 -16.29506301 1.17875329 -14.89644623 1.05004501 C-12.95420371 0.87164989 -11.01177389 0.69529747 -9.06933594 0.51904297 C-7.96652283 0.41848602 -6.86370972 0.31792908 -5.72747803 0.21432495 C-3 0 -3 0 0 0 Z " fill="#CD5A3F" transform="translate(439,90)"/>
<path d="M0 0 C33.40681818 0 33.40681818 0 39.05859375 4.71875 C39.74115234 5.60046875 39.74115234 5.60046875 40.4375 6.5 C40.91058594 7.0878125 41.38367188 7.675625 41.87109375 8.28125 C44.78829265 12.72266009 44.58035356 17.89288864 44 23 C42.63580653 26.54302381 40.69344804 29.30655196 38 32 C38.53109375 32.35191406 39.0621875 32.70382813 39.609375 33.06640625 C44.32688298 36.36349668 48.27242559 39.34219381 50 45 C51.01822781 52.0851685 50.2969471 58.16463975 46 64 C42.41956975 67.94249623 39.18196269 69.2726791 34 71 C22.78 71 11.56 71 0 71 C0 47.57 0 24.14 0 0 Z " fill="#030303" transform="translate(27,205)"/>
<path d="M0 0 C5.28 0 10.56 0 16 0 C16.495 18.315 16.495 18.315 17 37 C18.65 35.68 20.3 34.36 22 33 C28.04736429 30.9842119 35.42440908 30.87922228 41.3125 33.5 C46.715747 36.65847424 51.80036278 42.09299301 54 48 C54.78931717 55.67714809 55.54255728 64.00889267 50.55859375 70.390625 C45.76809118 75.3372091 41.48774932 79.49032935 34.3515625 80.30078125 C28.42582155 80.32625005 24.21411016 79.88440136 19 77 C18.34 76.34 17.68 75.68 17 75 C16.67 76.32 16.34 77.64 16 79 C10.72 79 5.44 79 0 79 C0 52.93 0 26.86 0 0 Z " fill="#060606" transform="translate(353,197)"/>
<path d="M0 0 C11.03305274 9.30650632 19.91003824 24.26814675 21.25259399 38.80883217 C21.33116539 40.98177746 21.35244853 43.14717678 21.34960938 45.3215332 C21.35644241 46.13718246 21.36327545 46.95283173 21.37031555 47.79319763 C21.38381769 49.54897153 21.39292578 51.30478378 21.39802551 53.06060219 C21.40636415 55.83881239 21.42691029 58.61670168 21.45056152 61.39482117 C21.50676246 68.28684692 21.54225225 75.17895008 21.57818604 82.07110596 C21.60940442 87.91202939 21.6485478 93.75279318 21.69844055 99.59358788 C21.71851921 102.33180738 21.72682718 105.06990398 21.73474121 107.80818176 C21.74770843 109.48060561 21.76122797 111.1530253 21.77539062 112.82543945 C21.77440872 113.5875473 21.77342682 114.34965515 21.77241516 115.13485718 C21.8167328 118.88114043 21.93046546 120.55194819 24.0625 123.75 C23.92964936 127.46981784 23.81307131 129.860434 21.375 132.75 C18.19082007 134.12694267 16.35325199 133.730224 13.0625 132.75 C11.1875 131.625 11.1875 131.625 10.0625 129.75 C9.6875 126.25 9.6875 126.25 10.0625 122.75 C10.55657349 122.34239944 11.05064697 121.93479889 11.55969238 121.5148468 C13.94666184 118.71167002 13.49628311 115.52827416 13.48242188 112.01245117 C13.49089142 111.22495483 13.49936096 110.4374585 13.50808716 109.62609863 C13.53153451 107.01489191 13.53247647 104.40427298 13.53125 101.79296875 C13.53835416 99.96991238 13.54605353 98.14685823 13.55432129 96.32380676 C13.56778901 92.49290781 13.56932784 88.66221487 13.56347656 84.83129883 C13.55762133 79.95712143 13.5879862 75.08395426 13.62859344 70.20997143 C13.65465889 66.43745234 13.65733013 62.6651691 13.65370178 58.8925724 C13.65537991 57.09828496 13.66489447 55.30398503 13.68284607 53.50978661 C13.83156645 36.78720895 10.64356281 22.36485764 -0.96484375 9.50390625 C-14.32164468 -3.27321435 -31.71609167 -6.87086297 -49.58691406 -6.65014648 C-65.35961045 -6.18124966 -80.38601475 -1.68970371 -91.98046875 9.5390625 C-102.09160309 20.96202066 -107.07423324 35.30999131 -107.09863281 50.4519043 C-107.10359772 51.19898651 -107.10856262 51.94606873 -107.11367798 52.71578979 C-107.12819589 55.16860901 -107.13508088 57.62136377 -107.140625 60.07421875 C-107.14638096 61.78481548 -107.15213863 63.4954122 -107.15789795 65.20600891 C-107.16837551 68.78260599 -107.17424071 72.35918077 -107.17773438 75.93579102 C-107.1832405 80.52259569 -107.20732687 85.10910672 -107.23570633 89.6958189 C-107.25430021 93.22421647 -107.25953636 96.75254244 -107.26107025 100.28098488 C-107.26410001 101.97271153 -107.27213942 103.66443682 -107.28525543 105.35611534 C-107.30226319 107.71640133 -107.30045005 110.07595733 -107.29394531 112.4362793 C-107.30776749 113.48597145 -107.30776749 113.48597145 -107.3218689 114.55686951 C-107.33359062 118.34382661 -107.33359062 118.34382661 -105.44647217 121.49226379 C-104.69953094 122.11484322 -104.69953094 122.11484322 -103.9375 122.75 C-103.4375 126.1875 -103.4375 126.1875 -103.9375 129.75 C-106.0625 132.25 -106.0625 132.25 -108.9375 133.75 C-112.44482933 133.75 -114.1809698 133.3845092 -116.875 131.125 C-118.39231527 127.73335411 -117.74268298 125.30622484 -116.9375 121.75 C-116.6075 121.42 -116.2775 121.09 -115.9375 120.75 C-115.83375735 118.36508839 -115.79388164 116.0082044 -115.7956543 113.62255859 C-115.79217987 112.87597488 -115.78870544 112.12939117 -115.78512573 111.36018372 C-115.77775146 109.7308871 -115.77241503 108.10158033 -115.76883507 106.47227097 C-115.7616689 103.88040837 -115.74599435 101.28873504 -115.72749329 98.69692993 C-115.67508068 91.32434943 -115.62720184 83.95186368 -115.61157227 76.57910156 C-115.6013897 72.07138452 -115.57179341 67.56413108 -115.53025246 63.05659866 C-115.51806491 61.34972293 -115.51279841 59.64278125 -115.51505089 57.93586349 C-115.53478444 38.07089179 -111.31009281 19.64605284 -97.19702148 4.81152344 C-71.42793294 -20.97948133 -28.72480371 -20.34673596 0 0 Z " fill="#CD5D41" transform="translate(328.9375,14.25)"/>
<path d="M0 0 C5.88231324 6.38651152 7.1875 11.68632332 7.1875 20.375 C-4.6925 20.375 -16.5725 20.375 -28.8125 20.375 C-26.5274926 26.90713726 -26.5274926 26.90713726 -21.8125 30.375 C-17.88528932 30.95990372 -16.33141457 30.72094305 -13 28.5 C-10.77249833 26.56994846 -10.77249833 26.56994846 -9.8125 24.375 C-4.8625 24.375 0.0875 24.375 5.1875 24.375 C4.03476016 31.29143904 2.28023307 33.85026551 -2.8125 38.375 C-9.73663651 43.28359578 -17.61837792 43.26059909 -25.8125 42.375 C-34.06285875 40.66137666 -39.03027847 36.16575458 -43.8125 29.375 C-46.53632647 24.15433261 -46.58158242 18.14311819 -45.8125 12.375 C-43.29747634 5.1892181 -38.54642355 0.13384286 -32.04296875 -3.65625 C-21.1683402 -8.60134425 -9.82983425 -5.67945979 0 0 Z " fill="#070707" transform="translate(223.8125,234.625)"/>
<path d="M0 0 C3.84878415 3.53603055 7.3292804 6.98784119 9 12 C9 15.3 9 18.6 9 22 C-2.55 22 -14.1 22 -26 22 C-23.97384121 29.77277038 -23.97384121 29.77277038 -20 32 C-15.38471233 32.5016617 -12.68604439 31.84351996 -9 29 C-8.67 28.01 -8.34 27.02 -8 26 C-2.72 26 2.56 26 8 26 C6.83904683 31.80476587 4.97297941 35.02702059 0.8125 39.1875 C-6.56684709 43.94307924 -14.33395338 45.01555234 -23 44 C-29.24487436 42.38674079 -33.83679145 40.04631339 -38 35 C-38.556875 34.34 -39.11375 33.68 -39.6875 33 C-43.62872248 26.99432765 -43.70880701 20.97902292 -43 14 C-40.87477095 6.03711645 -34.61696279 1.24251693 -27.875 -2.9375 C-19.16306007 -6.12722629 -7.7487367 -5.05876075 0 0 Z " fill="#060606" transform="translate(334,233)"/>
<path d="M0 0 C3.84878415 3.53603055 7.3292804 6.98784119 9 12 C9 15.3 9 18.6 9 22 C-2.55 22 -14.1 22 -26 22 C-23.97384121 29.77277038 -23.97384121 29.77277038 -20 32 C-15.38471233 32.5016617 -12.68604439 31.84351996 -9 29 C-8.67 28.01 -8.34 27.02 -8 26 C-2.72 26 2.56 26 8 26 C6.83904683 31.80476587 4.97297941 35.02702059 0.8125 39.1875 C-6.56684709 43.94307924 -14.33395338 45.01555234 -23 44 C-29.24487436 42.38674079 -33.83679145 40.04631339 -38 35 C-38.556875 34.34 -39.11375 33.68 -39.6875 33 C-43.62872248 26.99432765 -43.70880701 20.97902292 -43 14 C-40.87477095 6.03711645 -34.61696279 1.24251693 -27.875 -2.9375 C-19.16306007 -6.12722629 -7.7487367 -5.05876075 0 0 Z " fill="#060606" transform="translate(125,233)"/>
<path d="M0 0 C2.57702109 3.43602812 3 4.60072868 3 9 C0.56131832 9.1079859 -1.87259133 9.18726589 -4.3125 9.25 C-5.00279297 9.28351563 -5.69308594 9.31703125 -6.40429688 9.3515625 C-8.42578125 9.390625 -8.42578125 9.390625 -12 9 C-13.65625 7 -13.65625 7 -15 5 C-17.50880616 4.51738333 -17.50880616 4.51738333 -20.1875 4.75 C-21.08855469 4.78609375 -21.98960937 4.8221875 -22.91796875 4.859375 C-23.60503906 4.90578125 -24.29210937 4.9521875 -25 5 C-25 6.65 -25 8.3 -25 10 C-23.7934375 10.15855469 -22.586875 10.31710938 -21.34375 10.48046875 C-11.5694119 11.8666031 -4.62713444 13.07625736 3 19.75 C5.12564934 24.53271101 4.47787675 29.41703325 3 34.3125 C-0.37781999 38.85144561 -5.49757984 40.97674292 -11 42 C-21.71530018 42.71435335 -30.40087396 42.76521366 -38.9375 35.5 C-42.28815072 31.43860519 -43.09467714 29.23306397 -43 24 C-40.56065775 23.86498106 -38.12875896 23.76596103 -35.6875 23.6875 C-34.99720703 23.64560547 -34.30691406 23.60371094 -33.59570312 23.56054688 C-31.57421875 23.51171875 -31.57421875 23.51171875 -28 24 C-26.08203125 26.45703125 -26.08203125 26.45703125 -25 29 C-23.99942021 30.22011391 -23.99942021 30.22011391 -22.00390625 30.1328125 C-20.79541016 30.12894531 -20.79541016 30.12894531 -19.5625 30.125 C-18.75941406 30.12757813 -17.95632813 30.13015625 -17.12890625 30.1328125 C-14.94602069 30.13578326 -14.94602069 30.13578326 -13 29 C-13.495 26.525 -13.495 26.525 -14 24 C-15.59328125 23.61908203 -15.59328125 23.61908203 -17.21875 23.23046875 C-36.5547725 18.55015034 -36.5547725 18.55015034 -39.66796875 15.2109375 C-42.0048422 11.33213875 -41.74508373 7.37391747 -41 3 C-39.05372641 -0.78442088 -36.07973321 -3.68008631 -32 -5 C-20.76231181 -7.39099749 -9.33487886 -7.26046134 0 0 Z " fill="#050505" transform="translate(280,235)"/>
<path d="M0 0 C5.28 0 10.56 0 16 0 C16 5.94 16 11.88 16 18 C18.64 18 21.28 18 24 18 C24 21.96 24 25.92 24 30 C21.36 30 18.72 30 16 30 C16 41.22 16 52.44 16 64 C10.72 64 5.44 64 0 64 C0 52.78 0 41.56 0 30 C-2.64 30 -5.28 30 -8 30 C-8 26.04 -8 22.08 -8 18 C-5.36 18 -2.72 18 0 18 C0 12.06 0 6.12 0 0 Z " fill="#060606" transform="translate(148,212)"/>
<path d="M0 0 C0 4.62 0 9.24 0 14 C-36.63 14 -73.26 14 -111 14 C-110.67 12.35 -110.34 10.7 -110 9 C-97.13480704 7.821239 -84.26917868 6.64736048 -71.4029789 5.47963715 C-65.42810026 4.93721016 -59.45338192 4.39313048 -53.47900391 3.84521484 C-47.70868106 3.31607557 -41.93797163 2.79135471 -36.16697311 2.26963806 C-33.97013522 2.07026538 -31.77343885 1.86932654 -29.57689285 1.66676331 C-26.48994087 1.38236294 -23.40252327 1.10363883 -20.31494141 0.82617188 C-19.41582031 0.74201523 -18.51669922 0.65785858 -17.59033203 0.57115173 C-11.70462731 0.0499534 -5.90909265 -0.070057 0 0 Z " fill="#CE5F44" transform="translate(337,100)"/>
<path d="M0 0 C3.76115969 2.06495042 7.09650288 4.08725592 9 8 C9.73940087 12.77415625 9.45664981 16.10300929 7.25 20.4375 C4.65393889 23.39412515 2.73176435 24.70087707 -1.1484375 25.37109375 C-5.28770068 25.49454546 -8.12211901 25.39741725 -11.4375 22.75 C-14.13227455 19.85804682 -15.83987136 17.83480733 -16.1875 13.8515625 C-15.7371697 8.50389019 -14.56742058 5.70922465 -10.5703125 2.09375 C-7.19126423 -0.25981596 -3.98096902 -0.39029108 0 0 Z " fill="#DB5F31" transform="translate(215,314)"/>
<path d="M0 0 C3.71168084 0.96768822 5.55692692 2.80821076 8.1875 5.5703125 C9.7422669 8.67984629 9.47394437 11.13298011 9.1875 14.5703125 C7.16083762 18.27421271 5.70705484 20.22394261 2.1875 22.5703125 C-0.87828057 23.1157229 -3.7454232 23.10839615 -6.8125 22.5703125 C-11.13994906 19.23457052 -12.52598759 16.69869039 -13.25 11.3203125 C-12.74196337 6.96571283 -11.70604588 5.02679199 -8.72265625 1.90234375 C-5.8186291 -0.12275494 -3.47484494 -0.27000484 0 0 Z " fill="#FAFAFA" transform="translate(381.8125,241.4296875)"/>
<path d="M0 0 C3.96 0 7.92 0 12 0 C16 4 16 4 16.5 7.4375 C15.93237649 11.4818175 14.80548184 13.10684686 12 16 C13.98 18.64 15.96 21.28 18 24 C14.8125 24.4375 14.8125 24.4375 11 24 C8.88841619 21.91454966 7.43260857 19.58793807 6 17 C5.67 19.31 5.34 21.62 5 24 C3.35 24 1.7 24 0 24 C0 16.08 0 8.16 0 0 Z " fill="#DA5A2A" transform="translate(246,315)"/>
<path d="M0 0 C3 1.75 3 1.75 5 4 C5 5.32 5 6.64 5 8 C3.35 8 1.7 8 0 8 C-0.33 7.34 -0.66 6.68 -1 6 C-2.98 6 -4.96 6 -7 6 C-7 6.66 -7 7.32 -7 8 C-5.84371094 8.39832031 -5.84371094 8.39832031 -4.6640625 8.8046875 C-3.66117188 9.15789062 -2.65828125 9.51109375 -1.625 9.875 C-0.12839844 10.39707031 -0.12839844 10.39707031 1.3984375 10.9296875 C4 12 4 12 6 14 C6.41275616 17.71480543 6.47674327 20.11461964 4.6875 23.4375 C0.32100346 25.97616078 -4.0898147 25.85710335 -9 25 C-12.1875 22.6875 -12.1875 22.6875 -14 20 C-14 19.01 -14 18.02 -14 17 C-12.02 17 -10.04 17 -8 17 C-8 17.99 -8 18.98 -8 20 C-5.69 20 -3.38 20 -1 20 C-1 19.01 -1 18.02 -1 17 C-1.69867188 16.73445313 -2.39734375 16.46890625 -3.1171875 16.1953125 C-4.02726563 15.84210938 -4.93734375 15.48890625 -5.875 15.125 C-6.77992188 14.77695312 -7.68484375 14.42890625 -8.6171875 14.0703125 C-11 13 -11 13 -13 11 C-13.4375 7.625 -13.4375 7.625 -13 4 C-9.41457521 -0.36973646 -5.34576404 -1.07777501 0 0 Z " fill="#DC6133" transform="translate(135,314)"/>
<path d="M0 0 C12.05122556 -0.60864776 12.05122556 -0.60864776 16.3125 2.125 C18.31486677 5.53643968 18.72862574 7.11399608 18 11 C16.20006226 13.69990662 14.916227 15.5418865 12 17 C9.95944995 17.07065617 7.91665743 17.08421976 5.875 17.0625 C2.966875 17.0315625 2.966875 17.0315625 0 17 C0 11.39 0 5.78 0 0 Z " fill="#F9F9F9" transform="translate(43,247)"/>
<path d="M0 0 C4.62 0 9.24 0 14 0 C14 1.32 14 2.64 14 4 C11.03 4 8.06 4 5 4 C5 5.65 5 7.3 5 9 C7.97 9 10.94 9 14 9 C14 10.65 14 12.3 14 14 C11.03 14 8.06 14 5 14 C5 15.65 5 17.3 5 19 C7.97 19 10.94 19 14 19 C14 20.65 14 22.3 14 24 C9.38 24 4.76 24 0 24 C0 16.08 0 8.16 0 0 Z " fill="#DB5B2C" transform="translate(284,315)"/>
<path d="M0 0 C6.6 0 13.2 0 20 0 C20 1.98 20 3.96 20 6 C17.69 6 15.38 6 13 6 C13 12.27 13 18.54 13 25 C11.02 25 9.04 25 7 25 C7 18.73 7 12.46 7 6 C4.69 6 2.38 6 0 6 C0 4.02 0 2.04 0 0 Z " fill="#DF6E44" transform="translate(160,314)"/>
<path d="M0 0 C9.26315789 0 9.26315789 0 12 2 C14.5099972 5.76499581 14.61476744 7.54293606 14 12 C10.66182171 15.9223595 10.66182171 15.9223595 8 17 C5.36 17 2.72 17 0 17 C0 11.39 0 5.78 0 0 Z " fill="#EEEEEE" transform="translate(42,217)"/>
<path d="M0 0 C2.4375 1.5625 2.4375 1.5625 4 4 C4 7.82389746 3.85254277 10.05611336 1.25 12.9375 C-1.49491218 14.23370853 -3.00074212 14.52487013 -6 14 C-8.3125 12.375 -8.3125 12.375 -10 10 C-10.61195145 6.3282913 -10.48706506 4.71186432 -8.375 1.625 C-5.28813568 -0.48706506 -3.6717087 -0.61195145 0 0 Z " fill="#FEFAF9" transform="translate(215,320)"/>
<path d="M0 0 C2.56672519 1.42173784 3.95230847 2.79873161 6 5 C6 5.99 6 6.98 6 8 C-0.6 8 -7.2 8 -14 8 C-13 4 -13 4 -10.9375 1.75 C-7.23905975 -0.45332611 -4.15229071 -0.9551078 0 0 Z " fill="#F8F8F8" transform="translate(322,239)"/>
<path d="M0 0 C2.56672519 1.42173784 3.95230847 2.79873161 6 5 C6 5.99 6 6.98 6 8 C-0.6 8 -7.2 8 -14 8 C-13 4 -13 4 -10.9375 1.75 C-7.23905975 -0.45332611 -4.15229071 -0.9551078 0 0 Z " fill="#F8F8F8" transform="translate(113,239)"/>
<path d="M0 0 C2.9375 1.1875 2.9375 1.1875 5 3 C5.33 4.65 5.66 6.3 6 8 C-0.27 8 -6.54 8 -13 8 C-12 3 -12 3 -10.4375 1.1875 C-6.96634276 -0.5035766 -3.74794011 -0.54285641 0 0 Z " fill="#F8F8F8" transform="translate(209,239)"/>
<path d="M0 0 C0 0.99 0 1.98 0 3 C-8.25 3 -16.5 3 -25 3 C-25 2.67 -25 2.34 -25 2 C-21.58363244 1.66355312 -18.16686185 1.33138634 -14.75 1 C-13.78191406 0.90460938 -12.81382812 0.80921875 -11.81640625 0.7109375 C-10.41455078 0.57558594 -10.41455078 0.57558594 -8.984375 0.4375 C-8.12553711 0.35371094 -7.26669922 0.26992187 -6.38183594 0.18359375 C-4.25997133 0.02003879 -2.12815874 0 0 0 Z " fill="#D0664D" transform="translate(209,111)"/>
<path d="M0 0 C1.66611905 -0.042721 3.33382885 -0.04063832 5 0 C6 1 6 1 6.125 3.5 C6 6 6 6 5 7 C3.33382885 7.04063832 1.66611905 7.042721 0 7 C0 4.69 0 2.38 0 0 Z " fill="#FCF1ED" transform="translate(251,319)"/>
</svg>
