<?xml version="1.0" encoding="UTF-8"?>
<svg version="1.1" xmlns="http://www.w3.org/2000/svg" width="866" height="650">
<path d="M0 0 C285.78 0 571.56 0 866 0 C866 214.5 866 429 866 650 C580.22 650 294.44 650 0 650 C0 435.5 0 221 0 0 Z " fill="#FEFEFE" transform="translate(0,0)"/>
<path d="M0 0 C0.90411621 0.18191895 1.80823242 0.36383789 2.73974609 0.55126953 C51.35079561 10.35407443 97.39546566 39.01066173 128 78 C129.22203125 79.53140625 129.22203125 79.53140625 130.46875 81.09375 C146.63703939 101.52788888 158.52887834 124.39366643 167 149 C167.61101562 150.73056641 167.61101562 150.73056641 168.234375 152.49609375 C174.91163857 172.65629338 177.39898838 193.9838204 177.25 215.125 C177.24623352 215.93803589 177.24246704 216.75107178 177.23858643 217.58874512 C176.99285866 262.9205141 164.62033048 305.24772002 139.16992188 343.02148438 C137.84163343 345.26782193 136.94709467 347.57183037 136 350 C137.27667038 351.25668488 137.27667038 351.25668488 138.57913208 352.53875732 C146.62817032 360.4657599 154.66100909 368.40886641 162.67857552 376.36770248 C166.80025494 380.45817217 170.92728279 384.54291483 175.06738281 388.61474609 C179.06834175 392.55014587 183.05413385 396.50035006 187.03017807 400.46091461 C188.54383888 401.96355474 190.06274008 403.46093639 191.58710098 404.95272064 C210.34120495 423.32208873 210.34120495 423.32208873 211.7265625 435.5390625 C211.73061387 436.90145633 211.69703481 438.26450585 211.625 439.625 C211.60171631 440.35082275 211.57843262 441.07664551 211.55444336 441.82446289 C211.03523384 451.87111099 207.43740858 458.52422961 200.5078125 465.796875 C192.17540709 473.11693209 183.26092164 474.38560659 172.50390625 474.2734375 C157.37126308 473.09251774 146.11945587 458.39258308 136.12109375 448.31640625 C134.69950057 446.89107662 133.27746051 445.46619257 131.85499573 444.04173279 C128.13688745 440.31603781 124.4248283 436.58437344 120.71405029 432.85137939 C116.91655886 429.0333219 113.11330316 425.22101562 109.31054688 421.40820312 C101.86808559 413.94437964 94.43201019 406.47422909 87 399 C83.845295 400.23505465 80.99428108 401.49715023 78.13671875 403.3203125 C77.42346436 403.76906738 76.71020996 404.21782227 75.9753418 404.68017578 C74.84286011 405.39536377 74.84286011 405.39536377 73.6875 406.125 C65.34388741 411.29262418 56.89756512 415.86791043 48 420 C47.23413574 420.36335449 46.46827148 420.72670898 45.67919922 421.10107422 C16.60519688 434.78330089 -14.17970512 440.20991179 -46.125 440.3125 C-46.91080444 440.31511841 -47.69660889 440.31773682 -48.50622559 440.32043457 C-62.96171709 440.3255583 -76.82426514 438.93555292 -91 436 C-91.73943848 435.85578613 -92.47887695 435.71157227 -93.24072266 435.56298828 C-148.92212023 424.50711512 -198.52914075 388.3391856 -230 341.8125 C-249.03272503 313.0933773 -260.95641336 281.04317885 -266 247 C-266.09788818 246.3613501 -266.19577637 245.7227002 -266.29663086 245.06469727 C-267.32263839 237.35362369 -267.19895022 229.57670065 -267.1875 221.8125 C-267.18689575 221.05911346 -267.1862915 220.30572693 -267.18566895 219.5295105 C-267.10933066 184.39946948 -260.62952693 151.67105669 -245 120 C-244.63648438 119.25524414 -244.27296875 118.51048828 -243.8984375 117.74316406 C-230.1387807 89.81551532 -209.45617796 64.2155684 -185 45 C-184.00226563 44.19691406 -183.00453125 43.39382812 -181.9765625 42.56640625 C-131.42665589 2.27963858 -63.17650518 -13.68318327 0 0 Z " fill="#010101" transform="translate(461,90)"/>
<path d="M0 0 C3.48421229 2.91139585 6.87573411 5.91743865 10.23046875 8.9765625 C10.978125 9.65203125 11.72578125 10.3275 12.49609375 11.0234375 C40.56170569 37.7199952 56.54902536 77.39912636 57.58154297 115.75390625 C57.73742644 132.6783979 55.81257223 149.94930266 50.23046875 165.9765625 C50.0205127 166.59515137 49.81055664 167.21374023 49.59423828 167.85107422 C36.64060799 205.71480836 10.26752043 238.73866573 -25.76953125 256.9765625 C-31.99286818 259.91634833 -38.35064233 262.4987045 -44.76953125 264.9765625 C-45.81625 265.38777344 -46.86296875 265.79898437 -47.94140625 266.22265625 C-60.74356704 270.86976829 -75.16435949 273.59071916 -88.76953125 273.9765625 C-89.45837402 273.99702637 -90.1472168 274.01749023 -90.85693359 274.03857422 C-134.08196497 275.14926201 -172.57309512 259.39946662 -204.33984375 230.3046875 C-230.0004795 205.71668283 -245.1390684 172.94316049 -249.76953125 137.9765625 C-249.86596924 137.25654053 -249.96240723 136.53651855 -250.06176758 135.79467773 C-254.9480873 96.15152634 -242.49476841 56.48928809 -218.40380859 25.02880859 C-192.35678407 -7.67977942 -156.08534866 -27.78019137 -114.76953125 -33.0234375 C-113.47015625 -33.20777344 -112.17078125 -33.39210937 -110.83203125 -33.58203125 C-72.18510508 -38.31595856 -29.93589788 -24.40485481 0 0 Z " fill="#FEFEFE" transform="translate(512.76953125,188.0234375)"/>
</svg>
